
<svg id="Ebene_1" xmlns="http://www.w3.org/2000/svg" viewBox="0 0 64 64"><style>.st0{fill:#222}</style><path d="M-969.9 906.7c-.8-.8-2-.8-2.8 0l-1.6 1.6-3.8-3.8c3-3.6 4.8-8.3 4.8-13.4 0-11.6-9.4-21-21-21s-21 9.4-21 21 9.4 21 21 21c5.1 0 9.7-1.8 13.4-4.8l3.8 3.8-1.6 1.6c-.8.8-.8 2 0 2.8l18 18c.4.4.9.6 1.4.6s1-.2 1.4-.6l6-6c.8-.8.8-2 0-2.8l-18-18zm-41.4-15.6c0-9.4 7.6-17 17-17s17 7.6 17 17-7.6 17-17 17-17-7.6-17-17zm52 38.2l-15.2-15.2 3.2-3.2 15.2 15.2-3.2 3.2z"/><path class="st0" d="M45.6 36.6c-.8-.8-2-.8-2.8 0l-1.6 1.6-3.8-3.8c3-3.6 4.8-8.3 4.8-13.4 0-11.6-9.4-21-21-21S.2 9.4.2 21s9.4 21 21 21c5.1 0 9.7-1.8 13.4-4.8l3.8 3.8-1.6 1.6c-.8.8-.8 2 0 2.8l18 18c.4.4.9.6 1.4.6s1-.2 1.4-.6l6-6c.8-.8.8-2 0-2.8l-18-18zM4.2 21c0-9.4 7.6-17 17-17s17 7.6 17 17-7.6 17-17 17-17-7.6-17-17zm52 38.2L41 44l3.2-3.2L59.3 56l-3.1 3.2z"/></svg>
