
<svg id="iconmonstr" xmlns="http://www.w3.org/2000/svg" viewBox="0 0 37.6 37.7"><style>.st0{fill:none;stroke:#c5c5c5}.st1{fill:#f84969}.st2{fill:#fff}</style><path id="форма_копия_2" class="st0" d="M1.8 26.6c4.3 11.1 21.7 13.8 30 6.4 2.3-2.1 3.7-5.9 4.6-9 2.7-10.1-1.8-17.4-10-21.6C12.8-4.7-4.4 10.1 1.8 26.6z"/><path id="форма_копия_3" class="st1" d="M1.3 26.8c4.4 11.5 22.3 14.3 30.8 6.6 2.4-2.1 3.8-6 4.7-9.3C39.6 13.7 35 6.2 26.5 1.8c-13.9-7.2-31.6 8-25.2 25z"/><path class="st2" d="M20.1 18.8l6.4-6.4-1.3-1.3-6.4 6.4-6.4-6.4-1.3 1.3 6.4 6.4-6.4 6.5 1.3 1.3 6.4-6.5 6.4 6.5 1.3-1.3-6.4-6.5z"/></svg>
