<svg version="1.1" id="Ebene_1" xmlns="http://www.w3.org/2000/svg" xmlns:xlink="http://www.w3.org/1999/xlink" x="0px" y="0px"
	 viewBox="0 0 64 56" style="enable-background:new 0 0 64 56;" xml:space="preserve">
<style type="text/css">
	.st0{fill:#ff5500;}
</style>
<g>
	<path class="st0" d="M0,2c0,1.1,0.9,2,2,2h6.2L12,48.2c0,0,0,0,0,0c0,4.3,3.6,7.8,8,7.8c3.7,0,6.8-2.6,7.7-6h8.5c0.9,3.4,4,6,7.7,6
		c4.4,0,8-3.6,8-8s-3.6-8-8-8c-3.7,0-6.8,2.6-7.7,6h-8.5c-0.9-3.4-4-6-7.7-6c-1.7,0-3.3,0.5-4.6,1.4L14.9,35c0,0,0.1,0,0.1,0
		c0,0,0.1,0,0.1,0l41-2c0.9,0,1.6-0.6,1.8-1.4l6-21c0.2-0.6,0.1-1.3-0.3-1.8C63.2,8.3,62.6,8,62,8H12.5L12,1.8c-0.1-1-1-1.8-2-1.8H2
		C0.9,0,0,0.9,0,2z M44,44c2.2,0,4,1.8,4,4s-1.8,4-4,4c-2.2,0-4-1.8-4-4S41.8,44,44,44z M20,44c2.2,0,4,1.8,4,4s-1.8,4-4,4
		c-2.2,0-4-1.8-4-4S17.8,44,20,44z M59.3,12l-4.9,17.1L14.9,31c-0.1,0-0.2,0-0.4,0.1L12.9,12H59.3z"/>
</g>
</svg>
