<svg version="1.1" id="_x31_" xmlns="http://www.w3.org/2000/svg" xmlns:xlink="http://www.w3.org/1999/xlink" x="0px" y="0px"
	 viewBox="0 0 13.5 18.5" style="enable-background:new 0 0 13.5 18.5;" xml:space="preserve">
<style type="text/css">
	.st0{fill:#ff5500;}
</style>
<g>
	<path class="st0" d="M6.7,0c1.9,0,3.5,0.8,4.8,2l0,0l0,0c1.2,1.2,2,2.9,2,4.8s-1.1,4.1-2.4,6.2s-2.9,4-4,5.3
		c-0.2,0.2-0.5,0.2-0.7,0.1l-0.1-0.1C5.2,17,3.6,15,2.4,13C1,10.8,0,8.6,0,6.7C0,4.9,0.8,3.2,2,2S4.9,0,6.7,0L6.7,0z M10.8,2.6
		C9.8,1.6,8.3,1,6.7,1s-3,0.6-4.1,1.7c-1,1-1.6,2.4-1.6,4c0,1.7,1,3.7,2.2,5.7c1.1,1.8,2.5,3.5,3.5,4.8c1-1.3,2.4-3,3.5-4.8
		c1.2-2,2.2-4,2.2-5.7C12.5,5.1,11.8,3.7,10.8,2.6L10.8,2.6z"/>
</g>
<g>
	<path class="st0" d="M6.7,9.8c-1.8,0-3.2-1.4-3.2-3.2s1.4-3.2,3.2-3.2c1.8,0,3.2,1.4,3.2,3.2S8.5,9.8,6.7,9.8z M6.7,4.4
		c-1.2,0-2.2,1-2.2,2.2s1,2.2,2.2,2.2s2.2-1,2.2-2.2S7.9,4.4,6.7,4.4z"/>
</g>
</svg>
