
<svg version="1.1" id="Слой_1" xmlns="http://www.w3.org/2000/svg" xmlns:xlink="http://www.w3.org/1999/xlink" x="0px" y="0px"
	 viewBox="0 0 17 15" style="enable-background:new 0 0 17 15;" xml:space="preserve">
<style type="text/css">
	.st0{fill:#ff5500;}
</style>
<g>
	<g>
		<path class="st0" d="M15.3,7.9c-0.1,0-0.3-0.1-0.4-0.2c-0.2-0.2-0.2-0.5,0-0.8c1.3-1.3,1.3-3.5,0-4.9c-1.3-1.3-3.5-1.3-4.9,0
			c-0.2,0.2-0.5,0.2-0.8,0c-0.2-0.2-0.2-0.5,0-0.8c1.8-1.8,4.6-1.8,6.4,0c1.8,1.8,1.8,4.6,0,6.4C15.6,7.8,15.4,7.9,15.3,7.9z"/>
	</g>
	<g>
		<path class="st0" d="M8.5,2.7"/>
	</g>
	<g>
		<path class="st0" d="M8.5,3.2C8.3,3.2,8.2,3.1,8.1,3C7.9,2.8,7.9,2.5,8.2,2.3l1.2-1c0.2-0.2,0.6-0.2,0.7,0.1
			c0.2,0.2,0.2,0.6-0.1,0.7l-1.2,1C8.7,3.2,8.6,3.2,8.5,3.2z"/>
	</g>
	<g>
		<path class="st0" d="M1.7,7.9c-0.1,0-0.3-0.1-0.4-0.2c-1.8-1.8-1.8-4.6,0-6.4c1.8-1.8,4.6-1.8,6.4,0c0.2,0.2,0.2,0.5,0,0.8
			C7.5,2.3,7.2,2.3,7,2.1c-1.3-1.3-3.5-1.3-4.9,0C0.7,3.4,0.7,5.6,2.1,7c0.2,0.2,0.2,0.5,0,0.8C2,7.8,1.8,7.9,1.7,7.9z"/>
	</g>
	<g>
		<path class="st0" d="M8.5,2.7"/>
	</g>
	<g>
		<path class="st0" d="M8.5,3.2c-0.1,0-0.2,0-0.3-0.1L7,2.1C6.8,1.9,6.7,1.6,6.9,1.4c0.2-0.2,0.5-0.3,0.7-0.1l1.2,1
			C9.1,2.5,9.1,2.8,8.9,3C8.8,3.1,8.7,3.2,8.5,3.2z"/>
	</g>
	<g>
		<path class="st0" d="M8.5,14.9c-0.4,0-0.8-0.2-1.1-0.5L1.3,7.7c-0.2-0.2-0.2-0.6,0-0.8c0.2-0.2,0.6-0.2,0.8,0l6.1,6.7
			c0.2,0.2,0.5,0.2,0.6,0L14.9,7c0.2-0.2,0.5-0.2,0.8,0c0.2,0.2,0.2,0.5,0,0.8l-6.1,6.7C9.3,14.7,8.9,14.9,8.5,14.9z"/>
	</g>
</g>
</svg>
