
<svg id="Слой_1" xmlns="http://www.w3.org/2000/svg" viewBox="0 0 25 25"><style>.st0{fill:#ff8800}</style><path id="корзина_icon" class="st0" d="M7.1 14.2H4.4c-.8 0-1.5-.6-1.6-1.4s.6-1.5 1.4-1.6h1.5c1.4 0 2.6 0 4-.1s2.7-.1 4.1-.1c1.2 0 2.3 0 3.5-.1.5 0 1 0 1.5.1.3 0 .6.1.8 0 .2-.5.4-1.3.4-2 0-.6.1-1.1.2-1.7.2-.8.5-1.5.8-2.3l.6-1.5c-.6 0-1.2.1-1.8.1-.8.1-1.6.1-2.3.1-2 0-4 0-6 .1h-1.4c-2.9 0-5.8-.1-8.7-.4C.6 3.3-.1 2.5 0 1.7.1.9.9.3 1.7.4c2.8.3 5.5.4 8.3.4h1.4c2 0 4-.1 6.1 0 .6 0 1.3 0 2-.1 1.4-.2 2.9-.2 4.3.1.7 0 1.2.7 1.2 1.4-.1 1.3-.5 2.6-1.1 3.8-.3.6-.5 1.3-.7 2-.1.4-.1.8-.2 1.2-.1 1.4-.3 2.9-1.1 3.9-.9.9-2.3 1.3-3.5 1-.3 0-.6-.1-1-.1-1.2.1-2.5.1-3.7.1-1.3 0-2.6 0-3.8.1H7.1zm14.3 5.1h-.1c-3.7-.3-7.6-.3-11.4-.3-2 0-3.9 0-5.9-.1-.5 0-1-.3-1.3-.7-1.1-1.5.8-16.3.8-16.5.3-.8 1.2-1.2 2-.9.8.2 1.2 1 1 1.8v.1c-.4 1.2-1 10.1-1 13.3h4.4c3.8 0 7.8 0 11.6.3.8 0 1.5.8 1.4 1.6 0 .8-.7 1.4-1.5 1.4zm-1.8 6.1c.9-.1 1.7-.8 1.9-1.7.1-.5 0-1.1-.2-1.5-.6-1.4-2.8-1.1-3.7-.2-1.4 1.6.2 3.5 2 3.4M7 25.4c.9-.1 1.7-.8 1.9-1.7.1-.5 0-1.1-.2-1.5C8.1 20.7 5.9 21 5 22c-1.4 1.6.3 3.5 2 3.4"/></svg>
