
<svg width="428" height="428" viewBox="0 0 428 428" xmlns="http://www.w3.org/2000/svg"><title>vk</title><path d="M336.993 290.437l-36.253.505s-7.792 1.541-18.044-5.499c-13.557-9.306-26.348-33.508-36.312-30.348-10.103 3.206-9.786 24.977-9.786 24.977s.074 4.65-2.229 7.127c-2.506 2.697-7.406 3.238-7.406 3.238h-16.225s-35.801 2.154-67.334-30.678C109.018 223.958 78.652 152.91 78.652 152.91s-1.752-4.656.152-6.91c2.138-2.531 7.96-2.695 7.96-2.695l38.79-.254s3.654.61 6.27 2.532c2.157 1.585 3.364 4.548 3.364 4.548s6.27 15.857 14.57 30.198c16.206 28.001 23.754 34.125 29.255 31.125 8.017-4.373 5.613-39.582 5.613-39.582s.147-12.779-4.037-18.47c-3.239-4.407-9.347-5.697-12.046-6.056-2.183-.292 1.399-5.358 6.044-7.633 6.979-3.42 19.305-3.612 33.87-3.463 11.348.113 14.616.822 19.052 1.893 13.372 3.228 8.835 15.7 8.835 45.61 0 9.577-1.728 23.05 5.185 27.518 2.971 1.92 10.24.286 28.416-30.577 8.613-14.629 15.076-31.827 15.076-31.827s1.408-3.066 3.601-4.38c2.244-1.341 5.272-.928 5.272-.928l40.818-.254s12.266-1.463 14.251 4.075c2.083 5.81-4.583 19.38-21.259 41.606-27.383 36.496-30.43 33.083-7.696 54.181 21.718 20.158 26.22 29.97 26.956 31.189 8.993 14.91-9.971 16.08-9.971 16.08M213.65.002C95.655 0 0 95.653 0 213.65 0 331.645 95.655 427.3 213.65 427.3c117.996 0 213.65-95.655 213.65-213.65C427.3 95.653 331.646 0 213.65 0" fill="#FFF" fill-rule="evenodd"/></svg>
